<?xml version="1.0" encoding="utf-8"?>
<!-- Generator: Adobe Illustrator 23.0.0, SVG Export Plug-In . SVG Version: 6.00 Build 0)  -->
<svg version="1.1" id="Layer_2_1_" xmlns="http://www.w3.org/2000/svg" xmlns:xlink="http://www.w3.org/1999/xlink" x="0px" y="0px"
	 viewBox="0 0 64 64" style="enable-background:new 0 0 64 64;" xml:space="preserve">
<g>
	<path fill="#D0D0D0"
		  d="M23.4,64c-1.4,0-2.5-0.6-3.7-1.7c-1.7-2-1.1-4.2-0.8-5.4L24.2,34h-9.9c-0.8,0-2.3,0-3.7-1.1c-2.3-2-1.7-4.8-1.4-5.9
		l4.2-21.2c0.3-1.1,0.6-3.1,2.3-4.5C17.4,0,19.4,0,20.5,0h14.2c1.4,0,4,0,5.9,2.3c1.7,2.3,1.1,4.8,0.8,6.2l-1.1,5.4h8.5
		c4,0,5.4,1.7,5.9,3.4c0.8,2.3-0.6,4.2-1.1,5.1L28.2,60.9c-0.6,0.8-1.4,2-2.8,2.8C24.8,63.7,24.2,64,23.4,64
		C23.7,64,23.4,64,23.4,64z M14.6,28.3h17l-6.2,26.6l23.5-35.4H33.6l2.5-12.2c0.3-0.8,0.3-1.1,0.3-1.4c-0.3,0-0.6,0-1.4,0H20.8
		c-0.3,0-1.1,0-1.1,0s-0.3,0.8-0.3,1.1L14.6,28.3L14.6,28.3z"/>
</g>
</svg>
