<?xml version="1.0" encoding="utf-8"?>
<!DOCTYPE svg PUBLIC "-//W3C//DTD SVG 1.1//EN" "http://www.w3.org/Graphics/SVG/1.1/DTD/svg11.dtd">
<svg version="1.1" xmlns="http://www.w3.org/2000/svg"
     x="0px" y="0px" width="100px" height="100px"
     viewBox="0 125 1000 1000">
<g>
    <path stroke="#2090C0" fill-opacity="0" stroke-width="20"
          d="M864.5,372.7c-27.5-17.6-7.6-27.6-36.1-49.3c-28.4-21.7-143.8-58.5-163.9-41.8c-20.1,16.7-42.6,20.1-42.6,20.1H378c0,0-22.6-3.3-42.6-20.1c-20.1-16.7-135.4,20.1-163.9,41.8c-28.4,21.7-8.6,31.8-36.1,49.3c-27.5,17.6-99.3,260-99.3,260s-93.6,270,73.6,302.6c0,0,41-25.9,76.1-67.7c35.1-41.8,103.7-101.2,140.4-102c36-0.8,167.9,0,173.7,0l0,0c0,0,0,0,0.1,0s0.1,0,0.1,0l0,0c5.7,0,137.7-0.8,173.7,0c36.8,0.8,105.3,60.2,140.4,102c35.1,41.8,76.1,67.7,76.1,67.7c167.2-32.6,73.6-302.6,73.6-302.6S892,390.3,864.5,372.7z"/>

    <circle stroke="#2090C0" fill-opacity="0" stroke-width="20"
            cx="750.1" cy="542.5" r="31.7"/>
    <circle stroke="#2090C0" fill-opacity="0" stroke-width="20"
            cx="819.5" cy="474.7" r="31.7"/>
    <circle stroke="#2090C0" fill-opacity="0" stroke-width="20"
            cx="685.7" cy="474.7" r="31.7"/>
    <circle stroke="#2090C0" fill-opacity="0" stroke-width="20"
            cx="750.1" cy="410.4" r="31.7"/>

    <path stroke="#2090C0" fill-opacity="0" stroke-width="20"
            d="M250.1,400.5c-40,0-72.6,32.6-72.6,72.6c0,40,32.5,72.6,72.6,72.6c40,0,72.6-32.6,72.6-72.6C322.7,433,290.2,400.5,250.1,400.5z M250.1,529.2c-31,0-56.2-25.2-56.2-56.2c0-31,25.2-56.2,56.2-56.2c31,0,56.2,25.2,56.2,56.2C306.3,504,281.1,529.2,250.1,529.2z"/>

    <path stroke="#2090C0" fill-opacity="0" stroke-width="20"
            d="M389.7,612v-37.9h-30.6V612c0,2.9-2.3,5.2-5.2,5.2H316v30.6H354c2.9,0,5.2,2.3,5.2,5.2v37.9h30.6V653c0-2.9,2.3-5.2,5.2-5.2h37.9v-30.6h-37.9C392.1,617.2,389.7,614.9,389.7,612z"/>

    <path stroke="#2090C0" fill-opacity="128" stroke-width="20"
            d="M627.2,551.8c-40,0-72.6,32.6-72.6,72.6c0,40,32.6,72.6,72.6,72.6c40,0,72.6-32.6,72.6-72.6C699.8,584.4,667.2,551.8,627.2,551.8z M627.2,680.6c-31,0-56.2-25.2-56.2-56.2s25.2-56.2,56.2-56.2c31,0,56.2,25.2,56.2,56.2S658.1,680.6,627.2,680.6z"/>

    <text x="30" y="220" fill="#2090C0" font-size="130px">Dome</text>
    <text x="600" y="220" fill="#2090C0" font-size="130px">Track</text>
    <text x="50" y="880" fill="#2090C0" font-size="130px">Alt/Az</text>
    <text x="550" y="880" fill="#2090C0" font-size="130px">Ra/Dec</text>

</g>
</svg>