<?xml version="1.0" encoding="utf-8"?>
<!-- Generator: Adobe Illustrator 23.0.0, SVG Export Plug-In . SVG Version: 6.00 Build 0)  -->
<svg version="1.1" id="Layer_2_1_" xmlns="http://www.w3.org/2000/svg" xmlns:xlink="http://www.w3.org/1999/xlink" x="0px" y="0px"
	 viewBox="0 0 64 64" style="enable-background:new 0 0 64 64;" xml:space="preserve">
<g>
	<path fill="#2090C0" stroke="#000000" stroke-width="0"
		  d="M23.2,21.3c0.8,0,1.3-0.3,1.9-0.8l4.3-4.3V40c0,1.6,1.1,2.7,2.7,2.7c1.6,0,2.7-1.1,2.7-2.7V16.8l3.7,3.7
		c1.1,1.1,2.7,1.1,3.7,0c1.1-1.1,1.1-2.7,0-3.7l-7.5-7.5C33.9,8.5,32.8,8,31.7,8l0,0c-1.1,0-2.1,0.5-2.9,1.3l-7.5,7.5
		c-1.1,1.1-1.1,2.7,0,3.7C21.9,21.1,22.4,21.3,23.2,21.3z"/>
	<path fill="#2090C0" stroke="#000000" stroke-width="0"
		  d="M58.7,29.3H48c-1.6,0-2.7,1.1-2.7,2.7c0,1.6,1.1,2.7,2.7,2.7h10.7v16H5.3v-16H16c1.6,0,2.7-1.1,2.7-2.7
		c0-1.6-1.1-2.7-2.7-2.7H5.3c-2.9,0-5.3,2.4-5.3,5.3v16C0,53.6,2.4,56,5.3,56h53.3c2.9,0,5.3-2.4,5.3-5.3v-16
		C64,31.7,61.6,29.3,58.7,29.3z"/>
</g>
</svg>
