<?xml version="1.0" encoding="utf-8"?>
<!-- Generator: Adobe Illustrator 23.0.0, SVG Export Plug-In . SVG Version: 6.00 Build 0)  -->
<svg version="1.1" id="Layer_2_1_" xmlns="http://www.w3.org/2000/svg" xmlns:xlink="http://www.w3.org/1999/xlink" x="0px" y="0px"
	 viewBox="0 0 64 64" style="enable-background:new 0 0 64 64;" xml:space="preserve">
<g>
	<path fill="#2090C0" stroke="#000000" stroke-width="0"
		  d="M29.1,41.3c0.8,0.8,1.9,1.3,2.9,1.3c1.1,0,2.1-0.5,2.9-1.3l6.9-7.5c1.1-1.1,1.1-2.7,0-3.7s-2.7-1.1-3.7,0l-3.5,3.7V10.7
		C34.7,9.1,33.6,8,32,8c-1.6,0-2.7,1.1-2.7,2.7v23.2l-3.5-3.7c-1.1-1.1-2.7-1.1-3.7,0s-1.1,2.7,0,3.7L29.1,41.3z"/>
	<path fill="#2090C0" stroke="#000000" stroke-width="0"
		  d="M58.7,29.3H48c-1.6,0-2.7,1.1-2.7,2.7c0,1.6,1.1,2.7,2.7,2.7h10.7v16H5.3v-16H16c1.6,0,2.7-1.1,2.7-2.7
		c0-1.6-1.1-2.7-2.7-2.7H5.3c-2.9,0-5.3,2.4-5.3,5.3v16c0,3,2.4,5.4,5.3,5.4h53.3c2.9,0,5.3-2.4,5.3-5.3v-16
		C64,31.7,61.6,29.3,58.7,29.3z"/>
</g>
</svg>
