<?xml version="1.0" encoding="utf-8"?>
<!-- Generator: Adobe Illustrator 23.0.0, SVG Export Plug-In . SVG Version: 6.00 Build 0)  -->
<svg version="1.1" id="Layer_1" xmlns="http://www.w3.org/2000/svg" xmlns:xlink="http://www.w3.org/1999/xlink" x="0px" y="0px"
	 viewBox="0 0 64 64" style="enable-background:new 0 0 64 64;" xml:space="preserve">
<path fill="#D0D0D0" stroke="#D0D0D0" stroke-width="1"
	  d="M54.7,38.5c-1.1-1.1-2.7-1.1-3.7,0c-1.1,1.1-1.1,2.7,0,3.7l3.2,3.2h-6.4L37.1,32.1l10.7-13.3h6.4L50.7,22
	c-1.1,1.1-1.1,2.7,0,3.7c0.5,0.5,1.1,0.8,1.9,0.8s1.3-0.3,1.9-0.8l8.5-8.8c1.3-1.3,1.3-3.5,0-4.8l-8.5-8.8c-1.1-1.1-2.7-1.1-3.7,0
	c-1.1,1.1-1.1,2.7,0,3.7l6.1,6.4H45.1L33.6,27.9L21.9,13.4H2.7c-1.6,0-2.7,1.1-2.7,2.7c0,1.6,1.1,2.7,2.7,2.7h16.8l10.7,13.3
	L19.5,45.5H2.7c-1.6,0-2.7,1.1-2.7,2.7s1.1,2.7,2.7,2.7h19.2l11.5-14.4l11.5,14.4h11.7L50.7,57c-1.1,1.1-1.1,2.7,0,3.7
	c0.5,0.5,1.1,0.8,1.9,0.8s1.3-0.3,1.9-0.8l8.5-8.8c1.3-1.3,1.3-3.5,0-4.8L54.7,38.5z"/>
</svg>
