<?xml version="1.0" encoding="utf-8"?>
<!DOCTYPE svg PUBLIC "-//W3C//DTD SVG 1.1//EN" "http://www.w3.org/Graphics/SVG/1.1/DTD/svg11.dtd">
<svg version="1.1" id="meteoblue_logo"
    xmlns="http://www.w3.org/2000/svg"
    xmlns:xlink="http://www.w3.org/1999/xlink" x="0px" y="0px"
	 width="383px" height="111px" viewBox="0 0 383 111" xml:space="preserve">
    <path id="letter_m" fill="#124673" d="M33.866,22.415c3.656-3.411,8.003-6.217,15.427-5.456c4.309,0.442,8.375,3.279,10.348,6.397
	c2.41,3.806,2.524,9.191,2.419,15.083c0,7.304,0.027,15.343,0.027,22.169c-2.947,0-5.761,0-8.709,0
	c0-5.947-0.062-14.866-0.062-21.863c0-1.905,0.096-3.68-0.072-5.229c-0.469-4.325-3.579-7.878-8.466-7.902
	c-6.609-0.032-8.437,4.895-8.791,11.762c0,7.408,0.136,16.464,0.136,23.232c-2.884,0-5.769,0-8.654,0
	c0-7.236,0.122-15.587,0.122-22.919c0-1.316-0.008-2.587-0.122-3.797c-0.571-6.076-6.935-10.783-13.169-6.961
	c-0.872,0.533-1.823,1.419-2.351,2.331c-1.617,2.033-1.423,5.473-1.52,9.248c-0.058,2.249,0.108,17.906,0.108,22.099
	c-2.948,0-5.896,0-8.843,0c0-10.805,0-21.219,0-29.727c0-7.749,7.474-13.179,14.675-13.922
	C24.256,16.144,29.868,18.701,33.866,22.415z"/>
    <path id="letter_e1" fill="#124673" d="M107.242,42.357c-8.969,0-17.937,0-26.905,0c-1.217,11.519,13.99,13.4,19.754,6.585
	c2.193,1.696,4.498,3.279,6.209,5.457c-5.651,8.106-22.072,8.709-28.974,2.069c-5.447-5.239-6.948-15.418-5.269-24.082
	c1.745-8.996,7.938-16.28,19.191-15.427C103.145,17.861,108.546,27.994,107.242,42.357z M87.674,25.236
	c-4.652,0.619-7.08,4.547-7.337,9.784c6.02,0,12.041,0,18.062,0C98.166,28.605,94.357,24.349,87.674,25.236z"/>
    <path id="letter_t" fill="#124673" d="M125.442,4.255c0,4.328,0,8.654,0,12.981c2.07,0,4.304,0,6.374,0
	c0,1.955,0.023,4.527,0.023,6.774c-2.07,0-4.312,0-6.382,0c0,3.833-0.015,8.949,0.004,14.183c0.01,2.596-0.02,5.201-0.02,7.642
	c0,2.29-0.293,5.198,1.173,6.165c1.102,0.728,3.475,0.494,5.224,0.494c0,2.698,0,5.322,0,8.017
	c-8.57,0.704-14.548-1.727-15.052-8.655c-0.306-4.202-0.082-8.972-0.082-13.864c0.201-4.786,0.082-9.461,0.082-13.98
	c-1.505,0-3.01,0-4.515,0c0-2.271-0.005-4.868-0.005-6.773c1.38,0,3.127,0,4.508,0c0-3.899-0.025-9.044-0.025-12.981
	C119.571,4.255,122.62,4.255,125.442,4.255z"/>
    <path id="letter_e2" fill="#124673" d="M173.467,42.357c-8.969,0-17.936,0-26.904,0c-0.818,11.474,13.848,13.487,19.755,6.585
	c2.197,1.692,4.521,3.257,6.209,5.457c-3.882,4.06-8.358,6.773-15.616,6.773c-12.797,0-19.103-8.815-19.19-21.824
	c-0.083-12.156,5.71-23.732,20.13-22.389C169.428,18.037,174.839,28.073,173.467,42.357z M153.9,25.236
	c-4.646,0.64-7.052,4.551-7.338,9.784c6.084,0,12.167,0,18.25,0C164.512,28.634,160.682,24.304,153.9,25.236z"/>
    <path id="letter_o" fill="#124673" d="M195.668,17.146c9.154-1.055,15.986,3.553,18.625,9.407c2.387,5.29,2.652,20.062-0.188,25.399
	c-6.86,12.886-26.883,11.549-31.984-0.752c-2.945-7.101-2.052-19.976,0.376-25.023C184.755,21.485,189.444,17.863,195.668,17.146z
	 M190.023,30.881c-1.541,3.764-1.477,13.115,0.188,16.745c2.335,5.089,9.978,6.407,14.109,2.822c3.31-2.87,4.393-14.32,2.258-19.567
	c-1.202-2.957-4.811-5.492-9.217-5.08C193.199,26.19,191.109,28.229,190.023,30.881z"/>
    <path id="letter_b" fill="#124673" d="M225.217,0.025c2.886,0,5.947,0,8.831,0c0,7.212,0,14.424,0,21.637
	c1.862-1.078,3.257-2.664,5.269-3.574c8.342-3.781,17.766,1.646,19.754,8.466c1.584,5.423,1.406,21.817-0.939,25.963
	c-0.409,0.724-0.969,1.601-1.506,2.259c-6.938,8.484-23.574,8.365-29.351-1.318c-3.303-5.536-2.069-16.995-2.068-25.399
	c0-9.562-0.001-18.343,0-27.469C225.206,0.676,225.217,0.004,225.217,0.025z M237.246,27.118
	c-4.241,3.272-4.374,18.005-1.316,22.577c2.984,4.465,11.568,3.136,13.734-0.941c1.607-3.027,1.638-9.516,1.316-13.922
	c-0.457-6.282-3.004-9.598-9.408-9.031C239.556,25.979,238.342,26.273,237.246,27.118z"/>
    <path id="letter_l" fill="#124673" d="M269.429,0.025c2.886,0,5.948,0,8.833,0c0,11.806-0.045,26.02-0.045,39.322
	c0,2.333,0.008,7.282,0.008,10.223c0,1.074,0.334,1.871,0.691,2.194c1.239,1.126,4.127,0.563,5.556,0.753c0,2.696,0,5.395,0,8.09
	c-1.761,0.148-3.466,0.171-5.059,0.041c-5.731-0.468-9.083-2.456-10.038-8.696c-0.027-0.172-0.031-0.344-0.031-0.52
	c0-7.327,0.074-16.548,0.074-25.256c0-7.293,0-14.497,0-21.072C269.417,3.562,269.429-0.351,269.429,0.025z"/>
    <path id="letter_u" fill="#124673" d="M291.62,17.334c2.822,0,5.646,0,8.467,0c0,7.173,0.017,17.193,0.017,24.567
	c0,1.299,0.029,2.516,0.162,3.625c0.23,1.936,1.133,3.07,1.805,3.957c0.91,1.196,1.484,1.664,2.908,2.281
	c2.429,1.054,5.273,0.915,7.146,0.188c3.219-1.247,5.111-4.515,5.111-8.754c0.028-0.226,0.053-0.454,0.074-0.685
	c0-7.594-0.104-18.061-0.104-25.168c2.555,0,5.886-0.011,8.842-0.011c-0.229,3.396,0.006,6.95,0.006,10.53
	c0,6.957-0.006,13.84-0.006,19.949c0,4.629-5.396,11.114-12.68,12.901c-7.01,1.718-15.839-1.06-19.68-6.692
	c-1.157-1.698-2.374-3.72-2.374-6.266c0-8.29,0.117-20.768,0.117-30.391C291.432,17.306,291.4,17.367,291.62,17.334z"/>
    <path id="letter_e3" fill="#124673" d="M370.641,42.357c-8.97,0-17.938,0-26.906,0c-0.963,11.427,13.896,13.479,19.754,6.585
	c2.312,1.451,4.143,3.385,6.211,5.081c-3.41,4.46-8.333,7.105-15.43,7.148c-11.602,0.07-18.384-7.548-19.189-18.626
	c-1.003-13.763,4.477-26.918,19.755-25.587C366.569,17.982,372.046,27.946,370.641,42.357z M351.123,25.253
	c-4.646,0.64-7.053,4.551-7.337,9.784c6.085,0,12.168,0,18.251,0C361.735,28.651,357.908,24.32,351.123,25.253z"/>
    <path id="registered_circle" fill="#124673" d="M377.477,4.966c2.272-0.009,4.491,1.271,5.359,3.714
	c0.509,2.998-0.396,4.795-1.77,6.026c-3.279,2.941-9.298,0.917-9.441-3.957C371.516,7.099,374.503,4.977,377.477,4.966z
	 M373.174,10.373c0.055,4.311,3.968,5.477,6.54,3.865c1.38-0.863,2.161-2.523,1.837-4.618c-0.362-2.36-2.484-3.82-5.267-3.288
	C374.635,6.649,373.148,8.378,373.174,10.373z"/>
    <path id="registered_letter_r" fill="#124673" d="M378.552,7.787c1.156,0.406,1.889,1.851,0.178,2.775
	c0.79,0.588,1.078,1.682,1.318,2.823c-0.505,0-1.006,0-1.506,0c-0.2-0.743-0.299-1.584-0.755-2.07c-0.375,0-0.914,0-1.291,0
	c0,0.602,0.096,1.436-0.024,2.07c-0.44,0-0.879,0-1.318,0c0-1.819,0-3.771,0-5.59C376.865,7.506,377.557,7.58,378.552,7.787z
	 M376.644,8.78c-0.294,0.294-0.172,0.686-0.172,1.405c0.962,0.02,2.038,0.156,1.881-0.94C377.958,8.685,377.078,8.462,376.644,8.78z
	"/>
    <path id="letter_slogan_w" fill="#124673" d="M0,85.303c1.149,0,2.298,0,3.446,0c1.012,4.937,2.605,9.289,3.447,14.395
	c1.638-4.715,2.935-9.77,4.664-14.395c0.879,0,1.757,0,2.635,0c1.518,4.7,3.147,9.289,4.257,14.395
	c1.346-4.804,2.541-9.758,4.056-14.395c1.081,0,2.162,0,3.244,0c-1.912,5.86-3.851,11.692-5.677,17.64c-1.014,0-2.028,0-3.042,0
	c-1.481-4.532-2.994-9.035-4.257-13.787c-1.306,4.776-2.914,9.251-4.461,13.787c-1.013,0-2.027,0-3.041,0
	C3.582,96.994,1.73,91.209,0,85.303z"/>
    <path id="letter_slogan_e" fill="#124673" d="M43.184,94.832c-4.122,0-8.245,0-12.367,0c-0.387,5.654,6.194,7.051,10.948,5.068
	c0.194,0.818,0.413,1.614,0.607,2.434c-7.969,2.901-15.549-0.235-14.597-9.529C28.921,81.631,45.426,82.594,43.184,94.832z
	 M30.817,92.399c3.108,0,6.216,0,9.326,0C40.827,85.318,30.495,86.422,30.817,92.399z"/>
    <path id="letter_slogan_a" fill="#124673" d="M60.417,102.942c-1.014,0-2.027,0-3.042,0c0.143-0.886-0.345-1.142-0.202-2.027
	c-2.4,3.362-10.277,3.377-10.948-1.825c-0.709-5.488,4.615-7.504,10.542-7.299c0.872-5.334-5.629-4.98-8.515-3.244
	c-0.241-0.568-0.457-1.166-0.608-1.824c4.13-3.221,11.527-2.398,12.367,3.446C60.58,94.12,59.479,98.646,60.417,102.942z
	 M50.078,95.846c-1.371,1.934-0.353,4.671,1.622,5.068c3.427,0.689,6.015-2.196,5.271-6.894
	C53.906,94.16,51.251,94.191,50.078,95.846z"/>
    <path id="letter_slogan_t1" fill="#124673" d="M69.53,80.902c0,1.643,0.011,3.037,0.011,4.4c1.554,0,3.108,0,4.663,0
	c0,0.812,0,1.718,0,2.529c-1.487,0-3.165,0-4.651,0c0,2.549-0.025,6.729-0.025,9.651c0.153,0.901,0.358,1.959,0.799,2.524
	c0.677,0.869,1.825,0.549,3.615,0.549c0,0.596,0.059,1.545,0.059,2.386c-3.312,0.534-5.932,0.147-7.002-1.891
	c-0.877-2.461-0.771-8.733-0.702-13.257c-0.544,0-1.574-0.011-2.636-0.011c0-0.812,0-1.67,0-2.481c0.878,0,1.757,0,2.636,0
	c0-1.014,0-2.027,0-3.041C67.416,81.749,69.53,80.902,69.53,80.902z"/>
    <path id="letter_slogan_h" fill="#124673" d="M81.529,77.069c0,3.581,0,7.163,0,10.746c0.682-0.949,1.981-2.119,3.429-2.636
	c1.786-0.64,3.82-0.436,5.492,0.607c4.336,2.703,2.424,10.535,2.839,17.234c-1.082,0-2.164,0-3.244,0
	c-0.012-0.13-0.021-0.26-0.03-0.391c0-2.931,0.073-6.469,0.073-9.426c-0.154-2.535-0.776-4.602-2.679-5.389
	c-2.736-0.387-4.485,0.501-5.3,2.036c-0.648,0.977-0.498,2.095-0.6,3.433c0,2.982,0.021,6.68,0.021,9.736c-1.081,0-2.163,0-3.244,0
	c0-8.65,0-17.302,0-25.952C79.366,77.069,80.448,77.069,81.529,77.069z"/>
    <path id="letter_slogan_e2" fill="#124673" d="M113.333,94.832c-4.123,0-8.245,0-12.367,0c-0.386,5.654,6.194,7.051,10.948,5.068
	c0.194,0.818,0.414,1.614,0.608,2.434c-7.969,2.901-15.549-0.235-14.598-9.529C99.07,81.631,115.576,82.594,113.333,94.832z
	 M100.966,92.399c3.108,0,6.217,0,9.326,0C110.976,85.318,100.644,86.422,100.966,92.399z"/>
    <path id="letter_slogan_r" fill="#124673" d="M126.511,84.896c0,1.083,0,2.163,0,3.246c-4.707-0.764-5.814,3.188-5.509,7.756
	c-0.027,2.348,0.036,4.831,0.036,7.043c-1.082,0-2.202,0-3.283,0c0-5.883-0.021-11.98-0.021-17.639c1.039,0,2.057-0.018,2.898-0.018
	c0,1.081,0,2.383,0,3.463C121.667,86.539,123.039,84.67,126.511,84.896z"/>
    <path id="letter_slogan_sun" fill="#124673" stroke="#124673" stroke-miterlimit="10" d="M156.362,80.592c0.203,0,0.789,0,0.991,0
	c-0.023,0.734-0.024,2.926-0.024,4.2c2.747,0.362,3.671,1.075,4.484,1.687c1.61-1.637,2.606-2.778,3.583-3.544
	c0.208,0.158,0.699,0.425,0.851,0.655c-1.313,1.459-2.585,2.52-3.599,3.693c0.96,1.387,1.812,2.296,1.657,4.479
	c1.552,0,2.712,0.004,4.474,0.004c0,0.204-0.006,0.791-0.006,1.039c-1.281,0-3.097,0-4.344,0c-0.319,1.707-0.657,3.146-1.829,4.257
	c0.851,1.218,2.603,2.615,3.615,3.626c-0.114,0.122-0.505,0.492-0.802,0.775c-1.294-1.156-2.249-2.265-3.481-3.435
	c-1.676,1.016-2.542,1.539-4.556,1.825c0,1.298-0.012,3.014-0.012,4.209c-0.531,0-0.694,0-1.017,0
	c-0.011-1.01,0.014-3.254,0.014-4.258c-2.12-0.237-2.57-0.316-4.438-1.776c-0.937,0.821-2.435,2.411-3.475,3.413
	c-0.312-0.152-0.655-0.364-0.842-0.564c1.227-1.4,2.224-2.391,3.483-3.66c-0.968-1.529-1.655-2.48-1.622-4.461
	c-1.88,0-2.145,0.018-4.258,0.025c0-0.447-0.005-0.838-0.005-1.107c0.967,0,2.98,0.02,4.156,0.02c0.201-1.841,0.708-3.234,1.873-4.4
	c-1.042-1.042-2.662-2.61-3.544-3.494c0.143-0.143,0.379-0.592,0.651-0.865c1.248,1.248,2.408,2.231,3.715,3.538
	c1.34-0.892,2.438-1.577,4.305-1.671C156.362,83.381,156.362,82.011,156.362,80.592z M154.084,98.279
	c6.244,2.664,10.737-3.988,8.718-8.719c-1.078-2.525-4.184-4.041-7.299-3.446C149.839,87.193,148.375,95.843,154.084,98.279z"/>
    <path id="letter_slogan_c" fill="#124673" d="M199.701,85.506c-0.193,1.022-0.533,1.998-0.811,2.838
	c-0.827-0.174-1.505-0.721-2.027-0.811c-7.108-1.211-9.827,6.876-6.285,11.15c1.919,1.777,5.664,2.299,8.515,1.015
	c0.154,0.994,0.492,1.806,0.607,2.839c-7.52,2.951-13.849-1.37-13.989-8.109C185.562,87.209,192.262,82.525,199.701,85.506z"/>
    <path id="letter_slogan_l" fill="#124673" d="M206.797,76.787c0.005,7.914-0.003,17.567,0,26.154c-1.013,0-2.027,0-3.041,0
	c0-8.583,0-17.571,0-26.154C204.795,76.787,205.481,76.787,206.797,76.787z"/>
    <path id="letter_slogan_o1" fill="#124673" d="M217.949,84.896c4.674-1.065,8.048,0.766,9.729,3.246
	c3.754,5.533,0.14,14.312-5.472,15.205C209.658,105.339,208.516,87.049,217.949,84.896z M221.597,100.508
	c5.509-1.164,5.933-15.111-2.837-12.771C212.726,89.345,214.154,102.084,221.597,100.508z"/>
    <path id="letter_slogan_s" fill="#124673" d="M243.089,85.506c-0.306,1.048-0.542,1.786-0.811,2.838
	c-1.763-1.125-6.72-1.606-6.69,1.217c0.023,2.561,5.438,2.846,7.096,4.867c0.602,0.734,1.082,2.588,1.012,3.852
	c-0.273,4.96-6.45,6.372-11.555,4.055c0.162-1.182,0.373-1.868,0.607-3.041c2.182,1.986,9.199,1.914,7.502-2.23
	c-1.118-2.727-8.826-1.873-7.704-8.314C233.223,84.867,238.473,83.588,243.089,85.506z"/>
    <path id="letter_slogan_e3" fill="#124673" d="M262.756,94.832c-4.135,0-8.729-0.002-12.573-0.002
	c-0.097,2.408,1.261,4.145,3.196,5.017c2.211,0.992,5.17,0.886,7.491-0.149c0.261,0.742,0.394,1.639,0.721,2.839
	c-2.956,0.677-5.212,1.186-7.758,0.812c-10.024-1.481-8.923-20.494,3.243-18.652c3.402,0.513,5.421,3.955,5.68,8.516
	C262.814,94.266,262.766,93.945,262.756,94.832z M250.183,91.993c3.109,0,6.218,0,9.329,0
	C259.808,85.364,250.25,86.394,250.183,91.993z"/>
    <path id="letter_slogan_t2" fill="#124673" d="M279.322,80.818c0,1.645,0.014,3.039,0.014,4.401c1.557,0,3.109,0,4.664,0
	c0,0.812,0,1.718,0,2.53c-1.488,0-3.166,0-4.652,0c0,2.548-0.027,6.727-0.027,9.65c0.156,0.901,0.36,1.959,0.803,2.525
	c0.676,0.87,1.824,0.549,3.613,0.549c0,0.594,0.06,1.545,0.06,2.385c-3.313,0.533-5.932,0.146-7.003-1.89
	c-0.877-2.462-0.772-8.733-0.703-13.257c-0.542,0-1.573-0.011-2.637-0.011c0-0.812,0-1.67,0-2.482c0.881,0,1.758,0,2.637,0
	c0-1.013,0-2.027,0-3.04C277.21,81.666,279.322,80.818,279.322,80.818z"/>
    <path id="letter_slogan_o2" fill="#124673" d="M293.167,84.896c14.061-3.208,14.805,20.661,0.403,18.451
	C284.561,101.965,284.647,86.842,293.167,84.896z M296.814,100.508c5.633-1.261,5.771-15-2.838-12.771
	C287.592,89.389,289.338,102.183,296.814,100.508z"/>
    <path id="letter_slogan_y" fill="#124673" d="M314.656,85.1c1.215,0,2.434,0,3.65,0c1.586,4.463,4.728,13.044,5.068,13.381
	c1.253-4.625,2.998-8.76,4.256-13.381c1.218,0,2.434,0,3.649,0c-1.225,3.274-2.442,6.285-3.864,9.732
	c-1.61,4.287-2.534,7.429-5.227,11.863c-1.901,2.561-2.977,3.601-5.911,4.355c-0.294-1.188-0.478-1.795-0.811-3.243
	c2.096-0.462,6.173-2.979,5.675-6.082c-0.326-2.047-1.967-5.382-2.836-7.502C316.936,90.891,315.264,87.741,314.656,85.1z"/>
    <path id="letter_slogan_o3" fill="#124673" d="M349.935,91.993c0.082,7.462-2.854,12.534-10.543,11.354
	c-9.439-1.448-9.475-20.801,4.054-18.652C347.109,85.276,348.836,88.404,349.935,91.993z M340.201,100.508
	c8.588,1.571,8.751-15.141-0.403-12.771C334.175,89.19,334.761,99.516,340.201,100.508z"/>
    <path id="letter_slogan_u" fill="#124673" d="M354.393,85.1c1.083,0,2.163,0,3.245,0c0.346,3.433-0.459,8.179,0,11.354
	c0.137,0.95,0.653,2.509,1.219,3.041c2.302,2.169,6.265,0.402,7.296-2.231c0-4.053,0-8.109,0-12.164c1.081,0,2.164,0,3.245,0
	c0,5.947,0,11.895,0,17.842c-0.947,0-1.892,0-2.841,0c-0.047-0.965,0.26-2.285-0.605-2.434c-1.587,3.852-8.376,3.555-10.342,0.406
	c-0.633-1.014-0.821-2.32-0.984-3.773c-0.335-3.671-0.232-8.187-0.232-11.433C354.393,85.506,354.393,85.303,354.393,85.1z"/>
</svg>
