<?xml version="1.0" encoding="utf-8"?>
<!-- Generator: Adobe Illustrator 23.0.0, SVG Export Plug-In . SVG Version: 6.00 Build 0)  -->
<svg version="1.1" id="Layer_1" xmlns="http://www.w3.org/2000/svg" xmlns:xlink="http://www.w3.org/1999/xlink" x="0px" y="0px"
	 viewBox="0 0 64 64" style="enable-background:new 0 0 64 64;" xml:space="preserve">
<path fill="#2090C0" stroke="#000000" stroke-width="0"
	  d="M63.7,31.1c-0.3-0.3-0.3-0.8-0.5-1.1l-8.8-8.8c-1.1-1.1-2.7-1.1-3.7,0c-1.1,1.1-1.1,2.7,0,3.7l4.6,4.6H34.5V9.1l4.6,4.6
	c0.5,0.5,1.3,0.8,1.9,0.8c0.8,0,1.3-0.3,1.9-0.8c1.1-1.1,1.1-2.7,0-3.7L34,1.1C33.5,0.3,32.7,0,31.9,0c-0.8,0-1.6,0.3-2.1,0.8
	l-8.8,8.8c-1.1,1.1-1.1,2.7,0,3.7c1.1,1.1,2.7,1.1,3.7,0l4.6-4.6v20.6H8.8l4.6-4.6c1.1-1.1,1.1-2.7,0-3.7s-2.7-1.1-3.7,0L0.8,30
	c-1.1,1.1-1.1,2.9,0,4.3l8.8,8.8c0.5,0.5,1.3,0.8,1.9,0.8c0.8,0,1.3-0.3,1.9-0.8c1.1-1.1,1.1-2.7,0-3.7l-4.6-4.6h20.4v20.4l-4.6-4.6
	c-1.1-1.1-2.7-1.1-3.7,0c-1.1,1.1-1.1,2.7,0,3.7l8.8,8.8c0.5,0.5,1.3,0.8,2.1,0.8l0,0c0.8,0,1.6-0.3,2.1-0.8l8.8-8.8
	c1.1-1.1,1.1-2.7,0-3.7s-2.7-1.1-3.7,0l-4.6,4.6V34.8h20.4l-4.6,4.6c-1.1,1.1-1.1,2.7,0,3.7c0.5,0.5,1.1,0.8,1.9,0.8
	c0.8,0,1.3-0.3,1.9-0.8l8.8-8.8c0.3-0.3,0.5-0.5,0.5-1.1c0.5-0.3,0.5-0.8,0.5-1.1C64,31.9,63.7,31.3,63.7,31.1z"/>
</svg>
