<?xml version="1.0" encoding="utf-8"?>
<!-- Generator: Adobe Illustrator 22.0.1, SVG Export Plug-In . SVG Version: 6.00 Build 0)  -->
<svg version="1.1" id="Layer_2_1_" xmlns="http://www.w3.org/2000/svg" xmlns:xlink="http://www.w3.org/1999/xlink" x="0px" y="0px"
	 viewBox="0 0 64 64" style="enable-background:new 0 0 64 64;" xml:space="preserve">
<g>
	<path fill="#2090C0" stroke="#000000" stroke-width="0"
		  d="M32,13.3C14.4,13.3,0,28.8,0,48c0,1.6,1.1,2.7,2.7,2.7h58.7c1.6,0,2.7-1.1,2.7-2.7C64,28.8,49.6,13.3,32,13.3z M35.5,45.3
		L32,34.7l-3.5,10.7H5.3C6.7,30.4,18.1,18.7,32,18.7s25.3,11.7,26.7,26.7H35.5z"/>
	<path fill="#2090C0" stroke="#000000" stroke-width="0"
		  d="M32,21.3c-1.6,0-2.7,1.1-2.7,2.7v2.7c0,1.6,1.1,2.7,2.7,2.7c1.6,0,2.7-1.1,2.7-2.7V24C34.7,22.4,33.6,21.3,32,21.3z"/>
	<path fill="#2090C0" stroke="#000000" stroke-width="0"
		  d="M46.9,29.1l-1.6,1.6c-1.1,1.1-1.1,2.7,0,3.7c0.5,0.5,1.1,0.8,1.9,0.8c0.8,0,1.3-0.3,1.9-0.8l1.6-1.6c1.1-1.1,1.1-2.7,0-3.7
		C49.6,28,48,28,46.9,29.1z"/>
	<path fill="#2090C0" stroke="#000000" stroke-width="0"
		  d="M17.3,29.1c-1.1-1.1-2.7-1.1-3.7-0.3c-1.1,0.8-1.1,2.7-0.3,3.7l1.6,1.6c0.5,0.5,1.3,0.8,1.9,0.8s1.3-0.3,1.9-0.8
		c1.1-1.1,1.1-2.7,0.3-3.7L17.3,29.1z"/>
</g>
</svg>
