<?xml version="1.0" encoding="utf-8"?>
<!-- Generator: Adobe Illustrator 23.0.0, SVG Export Plug-In . SVG Version: 6.00 Build 0)  -->
<svg version="1.1" id="Layer_1" xmlns="http://www.w3.org/2000/svg" xmlns:xlink="http://www.w3.org/1999/xlink" x="0px" y="0px"
	 viewBox="0 0 64 64" style="enable-background:new 0 0 64 64;" xml:space="preserve">
<g>
	<path fill="#2090C0" stroke="#2090C0" stroke-width="0"
		  d="M28.8,14.4c-0.8-1.3-2.4-1.6-3.7-0.8c-1.3,0.8-1.6,2.4-0.8,3.7l9.9,14.4l-9.9,14.4c-0.8,1.3-0.5,2.9,0.8,3.7
		c0.5,0.3,1.1,0.5,1.6,0.5c0.8,0,1.6-0.5,2.1-1.1l10.7-15.5c0.8-1.1,0.8-2.7,0-4L28.8,14.4z"/>
	<path fill="#2090C0" stroke="#2090C0" stroke-width="0"
		  d="M32,0C14.4,0,0,14.4,0,32s14.4,32,32,32s32-14.4,32-32S49.6,0,32,0z M32,58.7c-14.7,0-26.7-12-26.7-26.7S17.3,5.3,32,5.3
		s26.7,12,26.7,26.7S46.7,58.7,32,58.7z"/>
</g>
</svg>
