<?xml version="1.0" encoding="utf-8"?>
<!-- Generator: Adobe Illustrator 23.0.0, SVG Export Plug-In . SVG Version: 6.00 Build 0)  -->
<svg version="1.1" id="Layer_2_1_" xmlns="http://www.w3.org/2000/svg" xmlns:xlink="http://www.w3.org/1999/xlink" x="0px" y="0px"
	 viewBox="0 0 64 64" style="enable-background:new 0 0 64 64;" xml:space="preserve">
<path fill="#D0D0D0" stroke="#D0D0D0" stroke-width="0"
	  d="M61.3,29.3h-5.9C54.4,18.1,45.6,9.1,34.7,7.7V2.7C34.7,1.1,33.6,0,32,0c-1.6,0-2.7,1.1-2.7,2.7v5.1
	C18.4,9.1,9.9,17.9,8.5,29.3H2.7C1.1,29.3,0,30.4,0,32c0,1.6,1.1,2.7,2.7,2.7h5.9c1.1,11.2,9.9,20.3,20.8,21.6v5.1
	c0,1.6,1.1,2.7,2.7,2.7c1.6,0,2.7-1.1,2.7-2.7v-5.1c10.9-1.3,19.5-10.1,20.8-21.6h5.9c1.6,0,2.7-1.1,2.7-2.7
	C64,30.4,62.9,29.3,61.3,29.3z M50.1,29.3h-5.9c-1.1-4.8-4.8-8.8-9.6-9.9v-6.1C42.7,14.4,49.1,21.1,50.1,29.3z M32,34.7
	c-1.6,0-2.7,1.1-2.7,2.7v1.6c-1.9-0.8-3.2-2.4-4-4.3h1.3c1.6,0,2.7-1.1,2.7-2.7c0-1.6-1.1-2.7-2.7-2.7h-1.3c0.8-1.9,2.1-3.5,4-4.3
	v1.6c0,1.6,1.1,2.7,2.7,2.7c1.6,0,2.7-1.1,2.7-2.7v-1.6c1.9,0.8,3.2,2.4,4,4.3h-1.3c-1.6,0-2.7,1.1-2.7,2.7c0,1.6,1.1,2.7,2.7,2.7
	h1.3c-0.8,1.9-2.1,3.5-4,4.3v-1.6C34.7,35.7,33.6,34.7,32,34.7z M29.3,13.3v6.1c-4.8,1.1-8.5,5.1-9.6,9.9h-5.9
	C14.9,21.1,21.3,14.4,29.3,13.3z M13.9,34.7h5.9c1.1,4.8,4.8,8.8,9.6,9.9v6.1C21.3,49.6,14.9,42.9,13.9,34.7z M34.7,50.7v-6.1
	c4.8-1.1,8.5-5.1,9.6-9.9h5.9C49.1,42.9,42.7,49.6,34.7,50.7z"/>
</svg>
