<?xml version="1.0" encoding="utf-8"?>
<!-- Generator: Adobe Illustrator 22.0.1, SVG Export Plug-In . SVG Version: 6.00 Build 0)  -->
<svg version="1.1" id="Layer_2_1_" xmlns="http://www.w3.org/2000/svg" xmlns:xlink="http://www.w3.org/1999/xlink" x="0px" y="0px"
	 viewBox="0 0 64 64" style="enable-background:new 0 0 64 64;" xml:space="preserve">
<g>
	<path fill="#2090C0"
		  d="M30,11.9l-8.5-8.3c-4.8-4.8-12.8-4.8-17.6,0c-2.4,2.4-3.7,5.6-3.7,8.8c0,3.5,1.3,6.4,3.7,8.8l8.3,8.5
		c2.4,2.4,5.6,3.7,8.8,3.7s6.4-1.3,8.8-3.7s3.7-5.3,3.7-8.8C33.7,17.5,32.4,14.6,30,11.9z M15.8,26.1l-8.3-8.5
		c-1.3-1.3-2.1-3.2-2.1-5.1s0.8-3.7,2.1-5.1s3.2-2.1,5.1-2.1s3.7,0.8,5.1,2.1l8.5,8.5c1.3,1.3,2.1,3.2,2.1,5.1
		c0,1.1-0.3,2.1-0.8,3.2l-2.4-2.4c-1.1-1.1-2.7-1.1-3.7,0s-1.1,2.7,0,3.7l2.1,2.1C20.9,28.5,18,27.9,15.8,26.1z"/>
	<path fill="#2090C0"
		  d="M60.4,42.6l-8.5-8.5c-4.8-4.8-12.8-4.8-17.6,0c-2.4,2.4-3.7,5.6-3.7,8.8c0,3.5,1.3,6.4,3.7,8.8l8.3,8.5
		c2.4,2.4,5.6,3.7,8.8,3.7c3.2,0,6.4-1.3,8.8-3.7c2.4-2.4,3.7-5.3,3.7-8.8C64.1,48.2,62.8,45,60.4,42.6z M56.6,56.5L56.6,56.5
		c-2.9,2.9-7.5,2.9-10.1,0L38,47.9c-1.3-1.3-2.1-3.2-2.1-5.1c0-0.8,0.3-1.6,0.5-2.4l1.9,2.1c0.5,0.5,1.3,0.8,1.9,0.8
		c0.8,0,1.3-0.3,1.9-0.8c1.1-1.1,1.1-2.7,0-3.7l-1.9-2.4c1.1-0.5,2.1-0.8,3.2-0.8c1.9,0,3.7,0.8,5.1,2.1l8.5,8.5
		c1.3,1.3,2.1,3.2,2.1,5.1C58.8,53.3,58,55.1,56.6,56.5z"/>
	<path fill="#2090C0"
		  d="M40.1,15.9c1.6,0,2.7-1.1,2.7-2.7v-8c0-1.6-1.1-2.7-2.7-2.7c-1.6,0-2.7,1.1-2.7,2.7v8C37.4,14.9,38.5,15.9,40.1,15.9z"/>
	<path fill="#2090C0"
		  d="M48.1,23.9c0,1.6,1.1,2.7,2.7,2.7h8c1.6,0,2.7-1.1,2.7-2.7c0-1.6-1.1-2.7-2.7-2.7h-8C49.2,21.3,48.1,22.3,48.1,23.9z"/>
	<path fill="#2090C0"
		  d="M42,20.2c0.5,0.5,1.3,0.8,1.9,0.8c0.8,0,1.3-0.3,1.9-0.8l6.9-6.9c1.1-1.1,1.1-2.7,0-3.7s-2.7-1.1-3.7,0L42,16.5
		C41.2,17.5,41.2,19.1,42,20.2z"/>
	<path fill="#2090C0"
		  d="M24.1,47.9c-1.6,0-2.7,1.1-2.7,2.7v8c0,1.6,1.1,2.7,2.7,2.7c1.6,0,2.7-1.1,2.7-2.7v-8C26.8,49,25.7,47.9,24.1,47.9z"/>
	<path fill="#2090C0"
		  d="M13.4,39.9c0-1.6-1.1-2.7-2.7-2.7H5.4c-1.6,0-2.7,1.1-2.7,2.7c0,1.6,1.1,2.7,2.7,2.7h5.3C12.4,42.6,13.4,41.5,13.4,39.9z"
		/>
	<path fill="#2090C0"
		  d="M16.1,42.3L9.2,49c-1.1,1.1-1.1,2.7,0,3.7c0.5,0.5,1.3,0.8,1.9,0.8c0.8,0,1.3-0.3,1.9-0.8l6.9-6.7c1.1-1.1,1.1-2.7,0-3.7
		S17.2,41.3,16.1,42.3z"/>
</g>
</svg>
