<?xml version="1.0" encoding="utf-8"?>
<!-- Generator: Adobe Illustrator 23.0.0, SVG Export Plug-In . SVG Version: 6.00 Build 0)  -->
<svg version="1.1" id="Layer_2_1_" xmlns="http://www.w3.org/2000/svg" xmlns:xlink="http://www.w3.org/1999/xlink" x="0px" y="0px"
	 viewBox="0 0 64 64" style="enable-background:new 0 0 64 64;" xml:space="preserve">
<path fill="#2090C0" stroke="#000000" stroke-width="0"
	  d="M61.3,56H56V33.9c0-2.4-2.1-4.5-4.5-4.5h-9.6c-2.4,0-4.5,2.1-4.5,4.5V56H32V22.9c0-2.4-2.1-4.3-4.5-4.3h-9.6
	c-2.4,0-4.5,1.9-4.5,4.3V56h-8V5.3c0-1.6-1.1-2.7-2.7-2.7S0,3.7,0,5.3v52.8c0,1.6,1.6,3.2,3.2,3.2h10.1H32h5.3H56h5.3
	c1.6,0,2.7-1.1,2.7-2.7C64,57.1,62.9,56,61.3,56z M18.7,56V24h8v32H18.7z M42.7,56V34.7h8V56H42.7z"/>
</svg>
