<?xml version="1.0" encoding="utf-8"?>
<!-- Generator: Adobe Illustrator 23.0.0, SVG Export Plug-In . SVG Version: 6.00 Build 0)  -->
<svg version="1.1" id="Layer_1" xmlns="http://www.w3.org/2000/svg" xmlns:xlink="http://www.w3.org/1999/xlink" x="0px" y="0px"
	 viewBox="0 0 64 64" style="enable-background:new 0 0 64 64;" xml:space="preserve">
<g>
	<path fill="#2090C0"
			d="M18.7,5.3H5.3C2.4,5.3,0,7.7,0,10.7v42.7c0,2.9,2.4,5.3,5.3,5.3h13.3c2.9,0,5.3-2.4,5.3-5.3V10.7C24,7.7,21.6,5.3,18.7,5.3
		z M5.3,53.3V10.7h13.3v42.7H5.3V53.3z"/>
	<path fill="#2090C0"
		  d="M58.7,5.3H45.3c-2.9,0-5.3,2.4-5.3,5.3v42.7c0,2.9,2.4,5.3,5.3,5.3h13.3c2.9,0,5.3-2.4,5.3-5.3V10.7
		C64,7.7,61.6,5.3,58.7,5.3z M45.3,53.3V10.7h13.3v42.7H45.3V53.3z"/>
</g>
</svg>
