<?xml version="1.0" encoding="utf-8"?>
<!DOCTYPE svg PUBLIC "-//W3C//DTD SVG 1.1//EN" "http://www.w3.org/Graphics/SVG/1.1/DTD/svg11.dtd">
<svg version="1.1" xmlns="http://www.w3.org/2000/svg" x="0px" y="0px"
     viewBox="0 250 1000 1000" enable-background="new 0 0 1000 1000"
     xml:space="preserve">
<metadata> Svg Vector Icons : http://www.onlinewebfonts.com/icon </metadata>
<g>
    <path d="M627.2,551.8c-40,0-72.6,32.6-72.6,72.6c0,40,32.6,72.6,72.6,72.6c40,0,72.6-32.6,72.6-72.6C699.8,584.4,667.2,551.8,627.2,551.8z M627.2,680.6c-31,0-56.2-25.2-56.2-56.2s25.2-56.2,56.2-56.2c31,0,56.2,25.2,56.2,56.2S658.1,680.6,627.2,680.6z"/>
    <path d="M627.2,578.5c-25.3,0-45.8,20.6-45.8,45.8c0,25.3,20.6,45.8,45.8,45.8c25.3,0,45.8-20.6,45.8-45.8C673,599.1,652.4,578.5,627.2,578.5z"/>
    <path d="M525.4,336c-5.4,2.6-13.7,6.7-14.6,11.2c0,0,22.8,22.2,21.8,42.7c4.7-6.5,7.5-14.5,7.5-23.1C540.1,354.4,534.3,343.4,525.4,336z"/>
    <circle cx="750.1" cy="542.5" r="31.7"/>
    <circle cx="819.5" cy="474.7" r="31.7"/>
    <circle cx="571.2" cy="474.7" r="16.6"/>
    <circle cx="685.7" cy="474.7" r="31.7"/>
    <circle cx="750.1" cy="410.4" r="31.7"/>
    <path d="M499.6,357.4c-20.3,15.7-27,28.8-29.2,36.2c7.3,8.1,17.8,13.3,29.6,13.3c11.4,0,21.7-4.9,29-12.6C527,387,520.5,373.5,499.6,357.4z"/>
    <path d="M864.5,372.7c-27.5-17.6-7.6-27.6-36.1-49.3c-28.4-21.7-143.8-58.5-163.9-41.8c-20.1,16.7-42.6,20.1-42.6,20.1H500.1h-0.2H378c0,0-22.6-3.3-42.6-20.1c-20.1-16.7-135.4,20.1-163.9,41.8c-28.4,21.7-8.6,31.8-36.1,49.3c-27.5,17.6-99.3,260-99.3,260s-93.6,270,73.6,302.6c0,0,41-25.9,76.1-67.7c35.1-41.8,103.7-101.2,140.4-102c36-0.8,167.9,0,173.7,0l0,0c0,0,0,0,0.1,0s0.1,0,0.1,0l0,0c5.7,0,137.7-0.8,173.7,0c36.8,0.8,105.3,60.2,140.4,102c35.1,41.8,76.1,67.7,76.1,67.7c167.2-32.6,73.6-302.6,73.6-302.6S892,390.3,864.5,372.7z M750.1,368.3c23.2,0,42.1,18.9,42.1,42.1c0,23.2-18.9,42.1-42.1,42.1c-23.2,0-42.1-18.9-42.1-42.1C708,387.2,726.9,368.3,750.1,368.3z M685.7,432.7c23.2,0,42.1,18.9,42.1,42.1c0,23.2-18.9,42.1-42.1,42.1c-23.2,0-42.1-18.9-42.1-42.1C643.6,451.6,662.5,432.7,685.7,432.7z M571.2,447.8c14.8,0,26.9,12.1,26.9,26.9c0,14.8-12.1,26.9-26.9,26.9c-14.8,0-26.9-12.1-26.9-26.9C544.2,459.9,556.3,447.8,571.2,447.8z M167.2,473.1c0-45.7,37.2-82.9,82.9-82.9c45.7,0,82.9,37.2,82.9,82.9c0,45.7-37.2,82.9-82.9,82.9C204.4,556,167.2,518.8,167.2,473.1z M443.2,653c0,2.9-2.3,5.2-5.2,5.2h-37.9v37.9c0,2.9-2.3,5.2-5.2,5.2H354c-2.9,0-5.2-2.3-5.2-5.2v-37.9h-37.9c-2.9,0-5.2-2.3-5.2-5.2V612c0-2.9,2.3-5.2,5.2-5.2h37.9v-37.9c0-2.9,2.3-5.2,5.2-5.2h40.9c2.9,0,5.2,2.3,5.2,5.2v37.9H438c2.9,0,5.2,2.3,5.2,5.2V653z M430.7,501.6c-14.8,0-26.9-12.1-26.9-26.9c0-14.8,12.1-26.9,26.9-26.9c14.8,0,26.9,12.1,26.9,26.9C457.6,489.6,445.5,501.6,430.7,501.6z M500,417.2c-27.8,0-50.4-22.6-50.4-50.4c0-27.8,22.6-50.4,50.4-50.4c27.8,0,50.4,22.6,50.4,50.4C550.4,394.6,527.8,417.2,500,417.2z M627.2,707.3c-45.7,0-82.9-37.2-82.9-82.9c0-45.7,37.2-82.9,82.9-82.9s82.9,37.2,82.9,82.9C710.1,670.1,672.9,707.3,627.2,707.3z M750.1,584.5c-23.2,0-42.1-18.9-42.1-42.1c0-23.2,18.9-42.1,42.1-42.1c23.2,0,42.1,18.9,42.1,42.1C792.1,565.7,773.3,584.5,750.1,584.5z M819.5,516.8c-23.2,0-42.1-18.9-42.1-42.1c0-23.2,18.9-42.1,42.1-42.1c23.2,0,42.1,18.9,42.1,42.1C861.5,497.9,842.6,516.8,819.5,516.8z"/>
    <path d="M250.1,427.2c-25.3,0-45.8,20.6-45.8,45.8c0,25.3,20.6,45.8,45.8,45.8c25.3,0,45.8-20.6,45.8-45.8C296,447.8,275.4,427.2,250.1,427.2z"/>
    <path d="M516.8,330.5c-5.1-2.4-10.8-3.8-16.8-3.8c-6.1,0-11.8,1.5-17,3.9c9.1,0.7,15.1,4.6,16.6,5.6C501.1,335.2,507.3,331.1,516.8,330.5z"/>
    <path d="M250.1,400.5c-40,0-72.6,32.6-72.6,72.6c0,40,32.5,72.6,72.6,72.6c40,0,72.6-32.6,72.6-72.6C322.7,433,290.2,400.5,250.1,400.5z M250.1,529.2c-31,0-56.2-25.2-56.2-56.2c0-31,25.2-56.2,56.2-56.2c31,0,56.2,25.2,56.2,56.2C306.3,504,281.1,529.2,250.1,529.2z"/>
    <path d="M474.3,336.3c-8.7,7.4-14.4,18.2-14.4,30.5c0,8.2,2.5,15.7,6.7,22.1c-0.2-20.2,21.8-41.6,21.8-41.6C487.6,342.8,479.7,338.8,474.3,336.3z"/>
    <circle cx="430.7" cy="474.7" r="16.6"/>
    <path d="M389.7,612v-37.9h-30.6V612c0,2.9-2.3,5.2-5.2,5.2H316v30.6H354c2.9,0,5.2,2.3,5.2,5.2v37.9h30.6V653c0-2.9,2.3-5.2,5.2-5.2h37.9v-30.6h-37.9C392.1,617.2,389.7,614.9,389.7,612z"/></g>
</svg>