<?xml version="1.0" encoding="utf-8"?>
<!-- Generator: Adobe Illustrator 21.0.2, SVG Export Plug-In . SVG Version: 6.00 Build 0)  -->
<svg version="1.1" id="Layer_1" xmlns="http://www.w3.org/2000/svg" xmlns:xlink="http://www.w3.org/1999/xlink" x="0px" y="0px"
	 viewBox="0 0 64 64" style="enable-background:new 0 0 64 64;" xml:space="preserve">
<path fill="#2090C0"
	  d="M60.5,0H30.1c-1.9,0-3.5,1.6-3.5,3.5V16H3.5C1.6,16,0,17.6,0,19.5v26.4c0,1.3,0.5,2.9,1.6,3.7l13.1,12.8
	c1.1,1.1,2.4,1.6,3.7,1.6h15.5c1.9,0,3.5-1.6,3.5-3.5V42.4l4.1,4.1c1.1,1.1,2.4,1.6,3.7,1.6h15.5c1.9,0,3.5-1.6,3.5-3.5V3.5
	C64,1.6,62.4,0,60.5,0z M7.5,48H16v8.3L7.5,48z M32,58.7H21.3V46.1c0-1.9-1.6-3.5-3.5-3.5H5.3V21.3H32V58.7z M37.3,35.2v-0.5H40v2.9
	L37.3,35.2z M58.7,42.7H45.3v-9.9c0-1.9-1.6-3.5-3.5-3.5h-4.5v-9.9c0-1.9-1.6-3.5-3.5-3.5H32V5.3h26.7V42.7z"/>
</svg>
