<?xml version="1.0" encoding="utf-8"?>
<!-- Generator: Adobe Illustrator 22.0.1, SVG Export Plug-In . SVG Version: 6.00 Build 0)  -->
<svg version="1.1" id="Layer_2_1_" xmlns="http://www.w3.org/2000/svg" xmlns:xlink="http://www.w3.org/1999/xlink" x="0px" y="0px"
	 viewBox="0 0 64 64" style="enable-background:new 0 0 64 64;" xml:space="preserve">
<g>
	<path fill="#2090C0"
		  d="M61.3,45.3c-1.6,0-2.7,1.1-2.7,2.7v10.7H5.3V48c0-1.6-1.1-2.7-2.7-2.7S0,46.4,0,48v12.5C0,62.4,1.9,64,4,64h56
		c2.1,0,4-1.6,4-3.5V48C64,46.4,62.9,45.3,61.3,45.3z"/>
	<path fill="#2090C0"
		  d="M28.3,44c1.1,1.1,2.4,1.6,3.7,1.6c1.3,0,2.7-0.5,3.7-1.6l7.7-7.5c1.1-1.1,1.1-2.7,0-3.7c-1.1-1.1-2.7-1.1-3.7,0l-5.1,4.8
		V2.7C34.7,1.1,33.6,0,32,0c-1.6,0-2.7,1.1-2.7,2.7v34.9l-5.1-5.1c-1.1-1.1-2.7-1.1-3.7,0c-1.1,1.1-1.1,2.7,0,3.7L28.3,44z"/>
</g>
</svg>
