<?xml version="1.0" encoding="utf-8"?>
<!-- Generator: Adobe Illustrator 22.0.1, SVG Export Plug-In . SVG Version: 6.00 Build 0)  -->
<svg version="1.1" id="Layer_1" xmlns="http://www.w3.org/2000/svg" xmlns:xlink="http://www.w3.org/1999/xlink" x="0px" y="0px"
	 viewBox="0 0 64 64" style="enable-background:new 0 0 64 64;" xml:space="preserve">
<path fill="#2090C0"
	  d="M58.7,8H30.4l-0.3-1.1c-0.5-1.1-1.6-1.6-2.7-1.6H2.7C1.1,5.3,0,6.4,0,8v48c0,1.6,1.1,2.7,2.7,2.7h58.7
	c1.6,0,2.7-1.1,2.7-2.7V21.3v-8C64,10.4,61.6,8,58.7,8z M58.7,13.3v5.3h-24l-2.1-5.3H58.7z M58.7,53.3H5.3V10.7h20.3l4,9.9
	c0.8,2.1,2.7,3.5,5.1,3.5h24V53.3z"/>
</svg>
