<?xml version="1.0" encoding="utf-8"?>
<!-- Generator: Adobe Illustrator 22.0.1, SVG Export Plug-In . SVG Version: 6.00 Build 0)  -->
<svg version="1.1" id="Layer_1" xmlns="http://www.w3.org/2000/svg" xmlns:xlink="http://www.w3.org/1999/xlink" x="0px" y="0px"
	 viewBox="0 0 64 64" style="enable-background:new 0 0 64 64;" xml:space="preserve">
<g>
	<path fill="#2090C0" stroke="#2090C0" stroke-width="0"
		  d="M44.8,16.5c-1.3-0.8-2.9-0.3-3.5,1.1c-0.8,1.3-0.3,2.9,1.1,3.5c6.7,3.5,10.9,10.1,10.9,17.3c0,10.9-9.6,20-21.3,20
		s-21.3-9.1-21.3-20c0-7.2,4-13.9,10.7-17.3c1.3-0.8,1.9-2.4,1.1-3.7c-0.8-1.3-2.4-1.9-3.7-1.1C10.4,21.1,5.3,29.6,5.3,38.7
		C5.3,52.5,17.3,64,32,64s26.7-11.5,26.7-25.3C58.7,29.3,53.3,21.1,44.8,16.5z"/>
	<path fill="#2090C0" stroke="#2090C0" stroke-width="0"
		  d="M32,34.7c1.6,0,2.7-1.1,2.7-2.7V2.7C34.7,1.1,33.6,0,32,0c-1.6,0-2.7,1.1-2.7,2.7V32C29.3,33.6,30.4,34.7,32,34.7z"/>
</g>
</svg>
