<?xml version="1.0" encoding="iso-8859-1"?>
<!-- Generator: Adobe Illustrator 19.0.0, SVG Export Plug-In . SVG Version: 6.00 Build 0)  -->
<svg version="1.1" id="Layer_1" xmlns="http://www.w3.org/2000/svg" xmlns:xlink="http://www.w3.org/1999/xlink" x="0px" y="0px"
	 viewBox="0 0 489.9 489.9" xml:space="preserve">
	<g>
		<path d="M483.675,347.096c-52.4-47.5-104-22.5-119.1-12.8c-0.7-1-12.2-12.6-12.2-12.6l36.8-36.8c8.3-8.3,8.3-20.8,0-29.1
			l-42.8-42.9l101-78.6c10.8-5.7,10.3-22.1,2.1-30.1l-96.5-96.5c-12.3-10.3-24-6.1-30.1,1l-79.9,101.8l-36.4-36.4
			c-8.3-8.3-20.8-8.3-29.1,0l-102.7,102.8c-8.3,8.3-8.3,20.8,0,29.1l36.5,36.5l-103.9,80.7c-10.1,8.3-9.2,22.3-1.1,30.1l96.5,96.5
			c8.3,8.3,20.2,9.3,30.1-1l82.2-103.6l42.4,42.4c8.7,8.8,20.6,8.1,29.1,0l36.8-36.8c0,0,11.7,11.5,12.6,12.2
			c-23.9,37-19.7,86.6,12.8,119.1c7,7.6,20.6,9.1,28,0l106.9-105.9C491.975,367.896,491.975,355.396,483.675,347.096z
			 M341.575,50.196l64.4,64.4l-89.3,69.5l-44.7-44.6L341.575,50.196z M116.275,405.196l-64.3-64.3l89.3-69.5l44.6,45.7
			L116.275,405.196z M271.975,343.996l-153.6-152.6l73.7-73.7l153.6,152.6L271.975,343.996z M365.375,436.396
			c-3.1-7.3-11-37.8,11.4-60.2c23.3-23.3,54-14.5,60.2-11.4L365.375,436.396z"
		stroke="none" fill="#D0D0D0"/>
	</g>
</svg>
