<?xml version="1.0" encoding="utf-8"?>
<!-- Generator: Adobe Illustrator 22.0.1, SVG Export Plug-In . SVG Version: 6.00 Build 0)  -->
<svg version="1.1" id="Layer_2_1_" xmlns="http://www.w3.org/2000/svg" xmlns:xlink="http://www.w3.org/1999/xlink" x="0px" y="0px"
	 viewBox="0 0 64 64" style="enable-background:new 0 0 64 64;" xml:space="preserve">
<g>
	<path fill="#2090C0"
		  d="M60,10.4L49.9,1.1l-0.3-0.3C49.1,0.3,48,0,47.2,0h-1.9h-32H6.7c-2.1,0-4,1.9-4,4v56c0,2.1,1.9,4,4,4H16h32h9.3
		c2.1,0,4-1.9,4-4V13.3C61.3,12.3,60.8,11.2,60,10.4z M40,5.3v5.3H18.7V5.3H40z M21.3,58.7V40h21.3v18.7H21.3z M56,58.7h-8v-20
		c0-2.1-1.9-4-4-4H20c-2.1,0-4,1.9-4,4v20H8V5.3h5.3V12c0,2.1,1.9,4,4,4h24c2.1,0,4-1.9,4-4V5.3h1.3l9.3,8.5V58.7z"/>
	<path fill="#2090C0"
		  d="M37.3,42.7H26.7c-1.6,0-2.7,1.1-2.7,2.7c0,1.6,1.1,2.7,2.7,2.7h10.7c1.6,0,2.7-1.1,2.7-2.7C40,43.7,38.9,42.7,37.3,42.7z"
		/>
	<path fill="#2090C0"
		  d="M37.3,50.7H26.7c-1.6,0-2.7,1.1-2.7,2.7c0,1.6,1.1,2.7,2.7,2.7h10.7c1.6,0,2.7-1.1,2.7-2.7C40,51.7,38.9,50.7,37.3,50.7z"
		/>
	<path fill="#FFFFFF" stroke="#2090C0"
		  d="M33.9,24.5c-1.1-0.8-2.7-0.8-4,0L14.4,35.2c-1.3,0.8-1.6,2.4-0.8,3.7c0.8,1.3,2.4,1.6,3.7,0.8l14.4-9.9l14.4,9.9
		c0.5,0.3,1.1,0.5,1.6,0.5c0.8,0,1.6-0.5,2.1-1.1c0.8-1.3,0.5-2.9-0.8-3.7L33.9,24.5z"/>
</g>
</svg>
