<?xml version="1.0" encoding="utf-8"?>
<!-- Generator: Adobe Illustrator 23.0.0, SVG Export Plug-In . SVG Version: 6.00 Build 0)  -->
<svg version="1.1" id="Layer_2_1_" xmlns="http://www.w3.org/2000/svg" xmlns:xlink="http://www.w3.org/1999/xlink" x="0px" y="0px"
	 viewBox="0 0 64 64" style="enable-background:new 0 0 64 64;" xml:space="preserve">
<path fill="#2090C0" stroke="#000000" stroke-width="0"
	  d="M60,16.2C55.7,8.8,48.3,3.2,40,1c-5.6-1.3-10.7-1.3-15.7,0C16,3.2,8.5,8.8,4.5,16.2C1.3,21.3,0,26.4,0,32v0.8
	c0.3,5.9,1.9,11.5,5.1,16.5c5.1,8,13.3,13.3,22.7,14.4C29.1,64,30.4,64,32,64c1.3,0,2.7,0,4-0.3c9.6-1.1,17.9-6.4,22.9-14.7
	c3.2-4.8,4.8-10.7,5.1-16.5V32C64,26.6,62.7,21.3,60,16.2z M50.4,45.3c1.3-3.5,2.1-6.9,2.1-10.7h5.9c-0.3,3.7-1.6,7.5-3.5,10.7H50.4
	z M8.8,45.3c-1.9-3.2-2.9-6.9-3.5-10.7h5.6c0.3,3.7,1.1,7.2,2.7,10.7H8.8z M13.1,21.3c-1.1,2.7-1.6,5.3-1.9,8H5.6
	c0.3-2.7,1.1-5.3,2.1-8H13.1z M44.5,21.3c1.3,2.4,2.1,5.3,2.4,8H34.7v-8H44.5z M34.7,16V7.7c2.1,1.9,4.5,4.5,6.7,8.3H34.7z
	 M29.3,7.7V16h-7.2C24.5,12.2,26.9,9.6,29.3,7.7z M29.3,21.3v8H16.5c0.3-2.7,1.1-5.6,2.4-8H29.3z M16.5,34.6h12.8v10.7h-9.6
	C17.9,42.1,16.8,38.4,16.5,34.6z M29.3,50.6v5.9c-2.1-1.6-4.3-3.5-6.1-5.9H29.3z M34.7,56.5v-5.9h6.7C39.5,53,37.1,54.9,34.7,56.5z
	 M34.7,45.3V34.6h12.5c-0.3,3.7-1.1,7.5-2.7,10.7H34.7z M52.3,29.3c-0.3-2.7-1.1-5.3-2.1-8h6.1c1.1,2.7,1.9,5.3,2.1,8H52.3z
	 M53.3,16h-5.6c-2.1-3.5-4.3-6.7-6.4-9.1C46.1,8.8,50.4,12,53.3,16z M22.1,7.2c-2.1,2.4-4.3,5.3-6.4,8.8h-5.1
	C13.6,12.2,17.6,9,22.1,7.2z M12.8,50.6h3.7c1.3,2.1,2.9,4,4.5,5.6C17.9,54.9,15.2,53,12.8,50.6z M43.7,56c1.6-1.6,2.9-3.5,4-5.3
	h3.2C48.8,52.8,46.4,54.6,43.7,56z"/>
</svg>
