<?xml version="1.0" encoding="iso-8859-1"?>
<!-- Generator: Adobe Illustrator 19.0.0, SVG Export Plug-In . SVG Version: 6.00 Build 0)  -->
<svg version="1.1" id="Layer_1" xmlns="http://www.w3.org/2000/svg" xmlns:xlink="http://www.w3.org/1999/xlink" x="0px" y="0px"
	 viewBox="0 0 512.549 512.549" style="enable-background:new 0 0 512.549 512.549;" xml:space="preserve">
<g transform="translate(-1)">
	<g>
		<g>
			<path stroke-width='1' stroke="none"
				  d="M214.609,213.605h-21.333v-21.333c0-11.782-9.551-21.333-21.333-21.333c-11.782,0-21.333,9.551-21.333,21.333v21.333
				h-21.333c-11.782,0-21.333,9.551-21.333,21.333c0,11.782,9.551,21.333,21.333,21.333h21.333v21.333
				c0,11.782,9.551,21.333,21.333,21.333c11.782,0,21.333-9.551,21.333-21.333v-21.333h21.333c11.782,0,21.333-9.551,21.333-21.333
				C235.943,223.156,226.391,213.605,214.609,213.605z"/>
			<path stroke-width='1' stroke="none"
				  d="M500.924,269.309c-12.915-49.866-33.027-100.133-53.035-141.855c-0.273-1.775-1.598-7.188-2.052-8.96
				c-1.151-4.496-2.174-7.968-3.373-11.107c-3.242-8.489-6.404-13.576-15.335-16.973l-62.11-23.598
				c-12.051-4.584-25.525-2.901-36.12,4.506l-2.105,1.472l-1.696,1.93c-1.745,1.985-4.607,5.115-7.619,8.168
				c-0.822,0.829-0.822,0.829-1.629,1.624c-0.394,0.386-0.773,0.751-1.132,1.091H200.334c-1.075-1.142-1.075-1.142-1.908-2.056
				c-2.723-3.006-5.302-6.099-6.856-8.047l-1.925-2.413l-2.53-1.768c-10.596-7.408-24.07-9.09-36.128-4.503L88.895,90.411
				c-8.969,3.412-12.121,8.51-15.348,17.028c-1.184,3.126-2.188,6.564-3.337,11.078c-0.4,1.572-1.694,6.865-1.941,7.831
				c-19.259,38.796-41.47,92.992-54.698,143.469C-7.884,351.686-3.78,412.893,40.752,442.363c13.705,9.031,31.564,7.364,43.661-3.43
				l73.894-66.253c6.541-5.872,14.782-9.057,23.284-9.057h152.832c8.502,0,16.743,3.185,23.274,9.048l73.866,66.228
				c12.24,10.921,30.427,12.721,44.123,3.176C518.544,411.991,522.09,351.038,500.924,269.309z M455.757,403.285l-69.566-62.373
				c-14.316-12.852-32.697-19.956-51.767-19.956H181.592c-19.07,0-37.45,7.104-51.777,19.965l-69.758,62.544
				c-19.658-18.052-21.296-61.46-5.213-122.832c12.346-47.111,33.478-98.672,51.546-134.307c1.399-2.752,2.112-5.086,3.217-9.411
				c0.319-1.249,1.62-6.572,1.952-7.876c0.16-0.629,0.314-1.22,0.461-1.772l50.992-19.374c1.186,1.381,2.463,2.836,3.793,4.303
				c1.113,1.222,1.113,1.222,2.273,2.457c9.927,10.492,13.691,13.62,24.204,13.62h128c10.147,0,13.785-2.861,24.417-13.27
				c1.094-1.079,1.094-1.079,2.155-2.148c1.719-1.742,3.365-3.468,4.858-5.073l51.321,19.499c0.151,0.56,0.308,1.159,0.471,1.797
				c0.382,1.493,1.69,6.836,1.931,7.787c1.066,4.206,1.73,6.435,2.992,9.058c18.908,39.428,38.104,87.404,50.193,134.082
				C475.42,341.016,474.252,384.613,455.757,403.285z"/>
			<path stroke-width="1" stroke="none"
				  d="M342.609,192.271c11.776,0,21.333-9.557,21.333-21.333s-9.557-21.333-21.333-21.333
				c-11.776,0-21.333,9.557-21.333,21.333S330.833,192.271,342.609,192.271z"/>
			<path stroke-width="1" stroke="none"
				  d="M342.609,234.938c-11.776,0-21.333,9.557-21.333,21.333s9.557,21.333,21.333,21.333c11.776,0,21.333-9.557,21.333-21.333
				S354.385,234.938,342.609,234.938z"/>
			<path stroke-width="1" stroke="none"
				  d="M299.943,192.271c-11.776,0-21.333,9.557-21.333,21.333s9.557,21.333,21.333,21.333s21.333-9.557,21.333-21.333
				S311.719,192.271,299.943,192.271z"/>
			<path stroke-width="1" stroke="none"
				  d="M385.276,192.271c-11.776,0-21.333,9.557-21.333,21.333s9.557,21.333,21.333,21.333s21.333-9.557,21.333-21.333
				S397.052,192.271,385.276,192.271z"/>
		</g>
	</g>
</g>
</svg>
