<?xml version="1.0" encoding="utf-8"?>
<!-- Generator: Adobe Illustrator 23.0.0, SVG Export Plug-In . SVG Version: 6.00 Build 0)  -->
<svg version="1.1" id="Layer_2_1_" xmlns="http://www.w3.org/2000/svg" xmlns:xlink="http://www.w3.org/1999/xlink" x="0px" y="0px"
	 viewBox="0 0 64 64" style="enable-background:new 0 0 64 64;" xml:space="preserve">
<g>
	<path fill="#D0D0D0" stroke="#000000" stroke-width="0"
		  d="M56.2,26.5c-2.1,0-4,0.8-5.4,2.1v-4c0-1.9-1.6-3.5-3.5-3.5H6.2c-1.9,0-3.5,1.6-3.5,3.5v12c0,8.3,4.8,15.8,11.5,19.5H2.7
		c-1.6,0-2.7,1.1-2.7,2.7s1.1,2.7,2.7,2.7h48.2c1.6,0,2.7-1.1,2.7-2.7s-1.1-2.7-2.7-2.7H39.6c4.8-2.7,8.6-7.2,10.2-12.6
		c1.3,1.9,3.7,3.2,6.2,3.2c2.1,0,4.3-0.8,5.9-2.4c1.3-1.6,2.1-3.5,2.1-5.6v-4.3C64.3,30,60.8,26.5,56.2,26.5z M45.5,37.2
		c0,8.8-7.2,16.1-16.3,16.1h-4.3C15.5,53.3,8,45.8,8,36.4v-9.9h37.5V37.2z M58.4,40.2C57.8,40.7,57,41,56.2,41
		c-1.3,0-2.7-1.3-2.7-2.7v-3.7c0-1.3,1.3-2.7,2.7-2.7c1.3,0,2.7,1.3,2.7,2.7v4C58.9,39.4,58.6,39.9,58.4,40.2z"/>
	<path fill="#D0D0D0" stroke="#000000" stroke-width="0"
		   d="M13.4,15.8c1.6,0,2.7-1.1,2.7-2.7v-8c0-1.6-1.1-2.7-2.7-2.7s-2.7,1.1-2.7,2.7v8C10.7,14.7,11.8,15.8,13.4,15.8z"/>
	<path fill="#D0D0D0" stroke="#000000" stroke-width="0"
		   d="M26.8,15.8c1.6,0,2.7-1.1,2.7-2.7v-8c0-1.6-1.1-2.7-2.7-2.7s-2.7,1.1-2.7,2.7v8C24.1,14.7,25.2,15.8,26.8,15.8z"/>
	<path fill="#D0D0D0" stroke="#000000" stroke-width="0"
		   d="M40.2,15.8c1.6,0,2.7-1.1,2.7-2.7v-8c0-1.6-1.1-2.7-2.7-2.7c-1.6,0-2.7,1.1-2.7,2.7v8C37.5,14.7,38.6,15.8,40.2,15.8z"/>
</g>
</svg>
