<?xml version="1.0" encoding="utf-8"?>
<!-- Generator: Adobe Illustrator 23.0.0, SVG Export Plug-In . SVG Version: 6.00 Build 0)  -->
<svg version="1.1" id="Layer_1" xmlns="http://www.w3.org/2000/svg" xmlns:xlink="http://www.w3.org/1999/xlink" x="0px" y="0px"
	 viewBox="0 0 64 64" style="enable-background:new 0 0 64 64;" xml:space="preserve">
<g>
	<path fill="#2090C0"
		  d="M8,5.3h48c1.6,0,2.7-1.1,2.7-2.7S57.6,0,56,0H8C6.4,0,5.3,1.1,5.3,2.7S6.4,5.3,8,5.3z"/>
	<path fill="#2090C0"
		  d="M56,58.7H8c-1.6,0-2.7,1.1-2.7,2.7C5.3,62.9,6.4,64,8,64h48c1.6,0,2.7-1.1,2.7-2.7C58.7,59.7,57.6,58.7,56,58.7z"/>
	<path fill="#2090C0"
		  d="M57.3,29.1l-11.5-9.6c-1.1-0.8-2.4-1.1-3.7-0.5c-1.3,0.5-2.1,1.9-2.1,3.2v19.7v0.3c0.3,1.3,1.1,2.4,2.1,2.9
		c0.5,0.3,1.1,0.3,1.6,0.3c0.8,0,1.6-0.3,2.1-0.8l11.5-9.6c0.8-0.8,1.3-1.9,1.3-2.9C58.7,30.9,58.1,29.9,57.3,29.1z M45.3,37.9v-12
		l7.2,5.9L45.3,37.9z"/>
	<path fill="#2090C0"
		  d="M8,18.7h24c1.6,0,2.7-1.1,2.7-2.7s-1.1-2.7-2.7-2.7H8c-1.6,0-2.7,1.1-2.7,2.7S6.4,18.7,8,18.7z"/>
	<path fill="#2090C0"
		  d="M8,34.7h24c1.6,0,2.7-1.1,2.7-2.7c0-1.6-1.1-2.7-2.7-2.7H8c-1.6,0-2.7,1.1-2.7,2.7C5.3,33.6,6.4,34.7,8,34.7z"/>
	<path fill="#2090C0"
		  d="M8,50.7h24c1.6,0,2.7-1.1,2.7-2.7s-1.1-2.7-2.7-2.7H8c-1.6,0-2.7,1.1-2.7,2.7S6.4,50.7,8,50.7z"/>
</g>
</svg>
